# xmcd
#
# Track frame offsets:
#	150
#	26190
#	46325
#	66825
#	85671
#	108600
#	126612
#	145739
#	167181
#	189713
#	218746
#	232050
#
# Disc length: 3417 seconds
#
# Revision: 0
# Processed by: cddbd v1.5.2PL0 Copyright (c) Steve Scherf et al.
# Submitted via: dBpowerAMP V4.0
#
DISCID=b60d570c
DTITLE=Diyar - Wey Dinyaye
DYEAR=1900
DGENRE=
TTITLE0=Wey Dinyaye
TTITLE1=Holik Cekir
TTITLE2=Qismet
TTITLE3=Cavres
TTITLE4=Le Le Daye
TTITLE5=Doza Me Namiri
TTITLE6=Riya Azadi
TTITLE7=Gula Min
TTITLE8=Ditirsim Daye
TTITLE9=Bira Huseyin
TTITLE10=Delala Min Megiri
TTITLE11=Pire
EXTD=
EXTT0=
EXTT1=
EXTT2=
EXTT3=
EXTT4=
EXTT5=
EXTT6=
EXTT7=
EXTT8=
EXTT9=
EXTT10=
EXTT11=
PLAYORDER=
